<svg xmlns="http://www.w3.org/2000/svg" viewBox="0 0 445.52 167.06"><defs><style>.cls-1{fill:#2b3990;}</style></defs><title>Layer 1</title><g id="Layer_2" data-name="Layer 2"><g id="Layer_1-2" data-name="Layer 1"><path class="cls-1" d="M137.24,124.16S87.06,111.1,9.11,111c0,0,17.67,11.61,20.62,37.25,0,0,5.52-15.57-3.32-29.53C26.41,118.74,60.89,114.65,137.24,124.16Z"/><path class="cls-1" d="M165,148.27a47.36,47.36,0,0,0-5.58-4.65,79,79,0,0,0-17.28-9.51,77.77,77.77,0,0,0-13-4,76.29,76.29,0,0,0-15.35-1.74,78.57,78.57,0,0,0-16.53,1.52A93.4,93.4,0,0,0,81,134.8l-3.83,1.71c-1.28.58-2.48,1.24-3.72,1.86L66.31,142l-3.54,1.79c-1.17.56-2.34,1-3.5,1.55l-3.46,1.52-1.71.75-1.78.63c-2.36.8-4.64,1.73-7,2.4s-4.57,1.37-6.82,1.85l-3.34.65a31.77,31.77,0,0,1-3.26.56l-3.18.37-1.55.18-1.52.05-3,.09c-1,.06-1.9-.1-2.82-.11s-1.83-.07-2.69-.16l-2.51-.36a44.74,44.74,0,0,1-4.51-.92c-1.36-.38-2.6-.77-3.71-1.18a31.19,31.19,0,0,1-4.9-2.32,14.12,14.12,0,0,1-1.6-1,10.84,10.84,0,0,0,1.39,1.28,26.28,26.28,0,0,0,4.58,3c1.07.55,2.29,1.11,3.65,1.67l2.17.76a17.6,17.6,0,0,0,2.4.69l2.6.63c.9.18,1.84.29,2.81.44a28.22,28.22,0,0,0,3,.36l3.15.15,1.63.07,1.65-.06,3.41-.14a27.93,27.93,0,0,0,3.5-.38l3.59-.5c1.23-.12,2.4-.48,3.63-.72l3.7-.83a32.42,32.42,0,0,0,3.7-1.06l3.73-1.18,1.89-.6,1.85-.73,3.75-1.5c1.25-.51,2.55-1,3.78-1.53l3.56-1.75,7.24-3.57c1.17-.56,2.32-1.18,3.52-1.71l3.62-1.56a86.7,86.7,0,0,1,15-4.72A82,82,0,0,1,113.74,133a84.31,84.31,0,0,1,14.43,1,92.86,92.86,0,0,1,12.66,2.94,97.58,97.58,0,0,1,17.85,7.6A70.05,70.05,0,0,1,165,148.27Z"/><path class="cls-1" d="M151.38,153.08s-.33-.4-1-1.11a30.54,30.54,0,0,0-3.36-2.83,31.08,31.08,0,0,0-2.65-1.79c-.5-.31-1-.65-1.57-.95l-1.77-.91a48,48,0,0,0-8.76-3.33c-1.69-.41-3.48-.78-5.34-1.14L124,140.7a26.42,26.42,0,0,0-3-.24,61.89,61.89,0,0,0-12.68.76,79.29,79.29,0,0,0-13,3.3L89,147l-6.07,2.58c-4,1.73-8,3.41-12.09,4.93s-8,3-11.92,4.28-7.72,2.36-11.38,3.28-7.17,1.58-10.44,2a83.31,83.31,0,0,1-9,.67l-3.79-.07c-1.17-.08-2.26-.13-3.23-.22-1.95-.22-3.5-.37-4.53-.56l-1.62-.23,1.53.52c1,.35,2.47.79,4.4,1.29,1,.22,2.05.44,3.23.69s2.49.37,3.88.57a63.27,63.27,0,0,0,9.46.3,81.39,81.39,0,0,0,11.13-1.15c1.93-.37,3.94-.73,5.95-1.18s4.07-.94,6.11-1.55,4.14-1.16,6.2-1.86,4.2-1.33,6.25-2.13c4.16-1.5,8.37-3.19,12.47-4.89l6.08-2.68,5.9-2.39a29,29,0,0,1,3-1l3-1c.49-.15,1-.33,1.48-.47l1.5-.34,3-.68A69,69,0,0,1,121,144.32c1.86-.08,3.66.12,5.42.13,1.73.17,3.42.36,5,.6a56.3,56.3,0,0,1,8.59,2.22l1.81.66,1.64.7A30.53,30.53,0,0,1,146.3,150,34.19,34.19,0,0,1,151.38,153.08Z"/><path class="cls-1" d="M99.17,123.72s-40-3-65.3-1.3a26.48,26.48,0,0,1,1.48,6.27S67.93,124.09,99.17,123.72Z"/><path class="cls-1" d="M36.08,131.72a14.4,14.4,0,0,1,0,6.06s37.07-7.17,50.32-8.13A303.49,303.49,0,0,0,36.08,131.72Z"/><path class="cls-1" d="M36.08,141.62a25.38,25.38,0,0,1-2.21,6.65s23.81-7.89,37.93-10.49A225.92,225.92,0,0,0,36.08,141.62Z"/><path class="cls-1" d="M73.17,30.63s-21.49,24.24-15,78.08a118.61,118.61,0,0,0-34.61,0S24.84,61.34,73.17,30.63Zm-8.37,8.9S33.51,64.85,27.61,104.45C27.61,104.45,34.61,71.67,64.8,39.53Z"/><path class="cls-1" d="M98.67,0S80.23,54.79,114.1,114.75c0,0-35.06-6.55-50.77-6C63.33,108.71,56,44.22,98.67,0ZM66.52,105.43s4.17-59,26.63-95.55C93.15,9.88,63.82,47.65,66.52,105.43Z"/><path class="cls-1" d="M118.68,89.37h1l.15.71h12.23l.12-.71h1l2.1,6.24L134,96.1a8,8,0,0,0-2.2-3.51,5.06,5.06,0,0,0-3.26-1,3.54,3.54,0,0,0-1,.07.39.39,0,0,0-.22.23A4.73,4.73,0,0,0,127.3,93v14.73a6.08,6.08,0,0,0,.11,1.42,1.3,1.3,0,0,0,.31.56,1.11,1.11,0,0,0,.55.28,8.67,8.67,0,0,0,1.56.1v1.28h-7.69V110a9.42,9.42,0,0,0,1.56-.09,1.15,1.15,0,0,0,.72-.58,4,4,0,0,0,.21-1.58v-15a3.3,3.3,0,0,0-.06-.85.49.49,0,0,0-.25-.24,2,2,0,0,0-.73-.08,6.22,6.22,0,0,0-2.5.42,5.06,5.06,0,0,0-1.76,1.45,8.79,8.79,0,0,0-1.42,2.65l-1.28-.49Z"/><path class="cls-1" d="M146.88,107.39l.92.8a13.22,13.22,0,0,1-2,2.1,6.94,6.94,0,0,1-1.86,1.09,6.25,6.25,0,0,1-2,.31,6.63,6.63,0,0,1-3.57-.92,7.09,7.09,0,0,1-2.59-2.74,8.34,8.34,0,0,1-.9-4,9,9,0,0,1,.87-4.11,6.58,6.58,0,0,1,6.06-3.66,6.58,6.58,0,0,1,2.66.5,5.09,5.09,0,0,1,1.92,1.54,6.68,6.68,0,0,1,1.14,2.35,9.25,9.25,0,0,1,.23,2H137.59c0,.5,0,.87,0,1.11a8.81,8.81,0,0,0,.63,3.43,4.84,4.84,0,0,0,1.66,2.21,4.1,4.1,0,0,0,2.35.71,4.52,4.52,0,0,0,2.16-.56A10.4,10.4,0,0,0,146.88,107.39Zm-1.83-6.15a6.13,6.13,0,0,0-.6-2.07,2.93,2.93,0,0,0-1.12-1.06,3.24,3.24,0,0,0-1.62-.4,3.66,3.66,0,0,0-1.69.4,3.74,3.74,0,0,0-1.31,1.09,6.54,6.54,0,0,0-.9,2Z"/><path class="cls-1" d="M161.05,107.07l.91.8c-1.79,2.54-3.94,3.82-6.45,3.82a6.39,6.39,0,0,1-4.94-2.23,7.88,7.88,0,0,1-2-5.52,8.26,8.26,0,0,1,.94-4,6.77,6.77,0,0,1,2.6-2.73,7.41,7.41,0,0,1,3.82-1A6.46,6.46,0,0,1,160,97.55a3.49,3.49,0,0,1,1.64,2.6,1.46,1.46,0,0,1-.39,1.08,1.2,1.2,0,0,1-.87.38,1,1,0,0,1-.5-.14,1.94,1.94,0,0,1-.5-.44,5.09,5.09,0,0,1-.41-.85,8.22,8.22,0,0,0-.6-1.19,3.16,3.16,0,0,0-1.1-1,3,3,0,0,0-1.45-.35,3.86,3.86,0,0,0-2.25.72,4.74,4.74,0,0,0-1.64,2.11,8.13,8.13,0,0,0-.61,3.32,7.14,7.14,0,0,0,1.5,4.77,4,4,0,0,0,3.1,1.52,5.05,5.05,0,0,0,1.68-.3,6,6,0,0,0,1.61-.87A14.46,14.46,0,0,0,161.05,107.07Z"/><path class="cls-1" d="M162.17,91.58V90.27a12,12,0,0,0,2.16-.47,7.36,7.36,0,0,0,1.61-.81h1.12V99.05a12.78,12.78,0,0,1,3.06-2.11,6.56,6.56,0,0,1,2.76-.67,4.35,4.35,0,0,1,3.17,1.21,4,4,0,0,1,1.23,3v7.48a4,4,0,0,0,.16,1.45,1,1,0,0,0,.55.5,5.62,5.62,0,0,0,1.73.16v1.28h-7.39V110h.55a3.61,3.61,0,0,0,1.37-.17,1,1,0,0,0,.48-.58,5.87,5.87,0,0,0,.15-1.67v-5.19a12.73,12.73,0,0,0-.12-2.24,2.48,2.48,0,0,0-.88-1.41,2.66,2.66,0,0,0-1.72-.54,5.66,5.66,0,0,0-2.45.62,11.54,11.54,0,0,0-2.65,1.85v7.63a3.08,3.08,0,0,0,.14,1.14.94.94,0,0,0,.47.43A4.19,4.19,0,0,0,169,110h.58v1.28h-7.4V110h.44a3.22,3.22,0,0,0,1.52-.27.84.84,0,0,0,.37-.53,11.56,11.56,0,0,0,.11-2.2V91.58Z"/><path class="cls-1" d="M180.05,98.81V97.54a10.2,10.2,0,0,0,1.9-.36,11.1,11.1,0,0,0,1.81-.91h1v2.89A13.49,13.49,0,0,1,188,96.87a6.54,6.54,0,0,1,2.71-.6,5,5,0,0,1,2.07.41,3.88,3.88,0,0,1,1.46,1.14,3.75,3.75,0,0,1,.75,1.63,8.79,8.79,0,0,1,.12,1.7v6.7a4.51,4.51,0,0,0,.16,1.55,1,1,0,0,0,.52.49,6.06,6.06,0,0,0,1.76.15v1.28h-7.35V110h.4a3.37,3.37,0,0,0,1.4-.19,1.21,1.21,0,0,0,.54-.58,4.74,4.74,0,0,0,.16-1.56v-5.6a7.27,7.27,0,0,0-.26-2.4,2.33,2.33,0,0,0-.9-1.09,2.88,2.88,0,0,0-1.61-.42,5.72,5.72,0,0,0-2.47.63,9.15,9.15,0,0,0-2.55,1.87v7a4.88,4.88,0,0,0,.17,1.59,1.18,1.18,0,0,0,.53.59A3.63,3.63,0,0,0,187,110h.41v1.28H180V110h.36a3.72,3.72,0,0,0,1.46-.19,1.06,1.06,0,0,0,.54-.67,8.2,8.2,0,0,0,.09-1.68V98.81Z"/><path class="cls-1" d="M205.12,96.27a6.94,6.94,0,0,1,3.63.92,6.42,6.42,0,0,1,2.43,2.71,9.05,9.05,0,0,1,.88,4.07,8.85,8.85,0,0,1-.9,4.06,6.5,6.5,0,0,1-2.48,2.72,7.09,7.09,0,0,1-3.74.94,6.11,6.11,0,0,1-5.19-2.3,9.34,9.34,0,0,1-.84-9.43,6.61,6.61,0,0,1,2.53-2.73A7.06,7.06,0,0,1,205.12,96.27ZM205,97.74a3.48,3.48,0,0,0-2.76,1.37,7.57,7.57,0,0,0-1.43,5,8,8,0,0,0,1.22,4.78,3.77,3.77,0,0,0,5.15.77,4.62,4.62,0,0,0,1.54-2.18,9.7,9.7,0,0,0,.59-3.53,9.39,9.39,0,0,0-.63-3.54,4.24,4.24,0,0,0-1.47-1.95A3.74,3.74,0,0,0,205,97.74Z"/><path class="cls-1" d="M212.67,91.53V90.27A8.47,8.47,0,0,0,216.46,89h1.06v18.74a4.75,4.75,0,0,0,.14,1.49,1.35,1.35,0,0,0,.54.63,3.29,3.29,0,0,0,1.38.19H220v1.28h-7.36V110h.75a2,2,0,0,0,1.05-.22,1.27,1.27,0,0,0,.5-.62,5.35,5.35,0,0,0,.15-1.58V91.53Z"/><path class="cls-1" d="M227.36,96.27a7,7,0,0,1,3.64.92,6.4,6.4,0,0,1,2.42,2.71,9.05,9.05,0,0,1,.89,4.07,8.73,8.73,0,0,1-.91,4.06,6.48,6.48,0,0,1-2.47,2.72,7.09,7.09,0,0,1-3.74.94,6.11,6.11,0,0,1-5.2-2.3,9.37,9.37,0,0,1-.83-9.43,6.65,6.65,0,0,1,2.52-2.73A7.09,7.09,0,0,1,227.36,96.27Zm-.11,1.47a3.45,3.45,0,0,0-2.76,1.37,7.57,7.57,0,0,0-1.43,5,8,8,0,0,0,1.21,4.78,3.56,3.56,0,0,0,3,1.46,3.62,3.62,0,0,0,2.17-.69,4.76,4.76,0,0,0,1.54-2.18,9.71,9.71,0,0,0,.58-3.53,9.39,9.39,0,0,0-.63-3.54,4.16,4.16,0,0,0-1.46-1.95A3.76,3.76,0,0,0,227.25,97.74Z"/><path class="cls-1" d="M246.14,97.83a4.84,4.84,0,0,1,1.31-1.18,2.42,2.42,0,0,1,1.22-.38,1.22,1.22,0,0,1,.87.32,1.08,1.08,0,0,1,.35.8,1.14,1.14,0,0,1-.32.82,1,1,0,0,1-.8.34,2.8,2.8,0,0,1-.54-.08,2.71,2.71,0,0,0-.67-.1,1.15,1.15,0,0,0-.75.34,4.22,4.22,0,0,1,.89,2.68A4.77,4.77,0,0,1,246,105a5.92,5.92,0,0,1-4.19,1.54,6.94,6.94,0,0,1-2.83-.63,9.18,9.18,0,0,0-1.07.89.89.89,0,0,0-.2.55.86.86,0,0,0,.43.73,5.77,5.77,0,0,0,2.15.64l4.13.65a15.26,15.26,0,0,1,2.77.76,4.41,4.41,0,0,1,2,1.39,3.4,3.4,0,0,1,.62,2,3.71,3.71,0,0,1-1.75,3.21q-2.22,1.55-6.58,1.54a11,11,0,0,1-3.72-.52,5,5,0,0,1-2.22-1.46A2.2,2.2,0,0,1,235,115a3.36,3.36,0,0,1,.58-1.85,13.08,13.08,0,0,1,2.68-2.55,5.29,5.29,0,0,1-1.94-.86,1.83,1.83,0,0,1-.75-1.42,2,2,0,0,1,.14-.74,2.42,2.42,0,0,1,.44-.69,9.54,9.54,0,0,1,1.13-1,9,9,0,0,0,.72-.57,5.43,5.43,0,0,1-1.57-1.77,4.47,4.47,0,0,1-.53-2.15,4.71,4.71,0,0,1,1.4-3.37,6.09,6.09,0,0,1,4.6-1.76,6.66,6.66,0,0,1,2.25.34A6.3,6.3,0,0,1,246.14,97.83Zm-6.63,13.07a9.77,9.77,0,0,0-1.82,2,3,3,0,0,0-.45,1.49,1.88,1.88,0,0,0,.45,1.18,3.25,3.25,0,0,0,1.54.94,8.76,8.76,0,0,0,2.73.36,10.93,10.93,0,0,0,3.34-.45,4.32,4.32,0,0,0,2-1.14,2,2,0,0,0,.44-1.3,1.64,1.64,0,0,0-.36-1.08,3,3,0,0,0-1.38-.77,13.34,13.34,0,0,0-1.88-.48Zm2.28-13.22a3.08,3.08,0,0,0-2.38,1.08,3.83,3.83,0,0,0-1,2.67,4.12,4.12,0,0,0,.44,1.93,3.39,3.39,0,0,0,1.25,1.35,3.16,3.16,0,0,0,1.69.49,3.23,3.23,0,0,0,1.7-.5,3.3,3.3,0,0,0,1.24-1.35,4.18,4.18,0,0,0,.44-1.92,3.89,3.89,0,0,0-.95-2.71A3.21,3.21,0,0,0,241.79,97.68Z"/><path class="cls-1" d="M248.21,96.63h6.94v1.28h-.57a4.47,4.47,0,0,0-1,0,.59.59,0,0,0-.32.25.85.85,0,0,0-.12.48,4.35,4.35,0,0,0,.38,1.38l3.32,8.3,3.08-7.93a6.94,6.94,0,0,0,.54-1.86.58.58,0,0,0-.24-.51,2.35,2.35,0,0,0-1.1-.16h-.68V96.63h5.84v1.28H264a3.3,3.3,0,0,0-1.12.12,1.39,1.39,0,0,0-.5.5,11.57,11.57,0,0,0-.77,1.69l-5.24,13a20.25,20.25,0,0,1-1.27,2.6,5.31,5.31,0,0,1-1.76,1.85,4.38,4.38,0,0,1-2.33.65,3.65,3.65,0,0,1-2.36-.72,1.87,1.87,0,0,1-.75-1.52,1.34,1.34,0,0,1,.33-.93,1,1,0,0,1,.77-.38,1.29,1.29,0,0,1,.64.16,3.91,3.91,0,0,1,.77.63,6.19,6.19,0,0,0,1,.83,1.28,1.28,0,0,0,.58.15,1.9,1.9,0,0,0,1.16-.43,3.39,3.39,0,0,0,1-1.2,19.26,19.26,0,0,0,.94-2.09l.6-1.5-4.73-11.27a7,7,0,0,0-.84-1.6,1.44,1.44,0,0,0-.69-.5,6,6,0,0,0-1.17-.06Z"/><path class="cls-1" d="M271.59,96.63H274V94.35a5.27,5.27,0,0,1,1.47-3.86,5.09,5.09,0,0,1,3.82-1.5,3.8,3.8,0,0,1,2.45.7,2,2,0,0,1,.88,1.52,1.3,1.3,0,0,1-.35.92,1.16,1.16,0,0,1-.88.38,1.73,1.73,0,0,1-.81-.19,5.25,5.25,0,0,1-1.06-.91,2.13,2.13,0,0,0-1.45-.76,1.31,1.31,0,0,0-.85.31,2,2,0,0,0-.58.91,6,6,0,0,0-.21,1.85v2.91h2.69v1.55h-2.69v9.88a4.43,4.43,0,0,0,.14,1.37,1,1,0,0,0,.43.48,4,4,0,0,0,1.33.13H279v1.28h-7.36V110H272a4.19,4.19,0,0,0,1.44-.15.92.92,0,0,0,.44-.49,5.27,5.27,0,0,0,.12-1.56V98.18h-2.44Z"/><path class="cls-1" d="M286.79,96.27a7,7,0,0,1,3.64.92,6.47,6.47,0,0,1,2.42,2.71,9.05,9.05,0,0,1,.89,4.07,8.73,8.73,0,0,1-.91,4.06,6.48,6.48,0,0,1-2.47,2.72,7.12,7.12,0,0,1-3.74.94,6.11,6.11,0,0,1-5.2-2.3,9.37,9.37,0,0,1-.83-9.43,6.65,6.65,0,0,1,2.52-2.73A7.09,7.09,0,0,1,286.79,96.27Zm-.11,1.47a3.45,3.45,0,0,0-2.76,1.37,7.52,7.52,0,0,0-1.43,5,8,8,0,0,0,1.21,4.78,3.56,3.56,0,0,0,3,1.46,3.62,3.62,0,0,0,2.17-.69,4.68,4.68,0,0,0,1.53-2.18,9.7,9.7,0,0,0,.59-3.53,9.39,9.39,0,0,0-.63-3.54,4.11,4.11,0,0,0-1.47-1.95A3.71,3.71,0,0,0,286.68,97.74Z"/><path class="cls-1" d="M294.49,98.81V97.54a8.09,8.09,0,0,0,1.85-.36,10.11,10.11,0,0,0,1.86-.91h1.07v2.87a8.05,8.05,0,0,1,2.35-2.1,4.94,4.94,0,0,1,2.42-.77,2.43,2.43,0,0,1,1.67.53,1.64,1.64,0,0,1,.62,1.29,1.36,1.36,0,0,1-.41,1,1.32,1.32,0,0,1-1,.42,1.15,1.15,0,0,1-.44-.08,2.59,2.59,0,0,1-.54-.33,2.49,2.49,0,0,0-1.32-.55,2.67,2.67,0,0,0-1.57.64,8.88,8.88,0,0,0-1.7,1.61v7a5.55,5.55,0,0,0,.09,1.24,1.23,1.23,0,0,0,.31.56,1.2,1.2,0,0,0,.53.35,4,4,0,0,0,1.1.1h.47v1.28h-7.39V110h.61a2.64,2.64,0,0,0,1.15-.16,1.49,1.49,0,0,0,.55-.64,4.29,4.29,0,0,0,.17-1.45v-9Z"/><path class="cls-1" d="M314.15,90.08h7.69v1.28h-.53a3.22,3.22,0,0,0-1.31.19,1,1,0,0,0-.55.64,5.3,5.3,0,0,0-.12,1.43v5.92h10.33V93.77a7.64,7.64,0,0,0-.07-1.43,1.16,1.16,0,0,0-.49-.73,2.11,2.11,0,0,0-1.15-.25h-.79V90.08h7.63v1.28h-.68a2.38,2.38,0,0,0-1.14.2,1,1,0,0,0-.47.52,4.52,4.52,0,0,0-.14,1.41V108a4.69,4.69,0,0,0,.15,1.53.83.83,0,0,0,.57.46,8.45,8.45,0,0,0,1.71.09v1.28h-7.63V110h.56a4.3,4.3,0,0,0,1.41-.15.76.76,0,0,0,.45-.48,9,9,0,0,0,.08-1.62v-6.61H319.33V108a4.81,4.81,0,0,0,.15,1.54.83.83,0,0,0,.57.45,9.77,9.77,0,0,0,1.79.09v1.28h-7.69V110h.49a4.26,4.26,0,0,0,1.39-.13.9.9,0,0,0,.44-.49,3.5,3.5,0,0,0,.17-1.3V93.49a4.34,4.34,0,0,0-.15-1.38,1.09,1.09,0,0,0-.47-.56,2.19,2.19,0,0,0-1.07-.19h-.8Z"/><path class="cls-1" d="M335,96.63l5.42-.23v9.81a5.06,5.06,0,0,0,.34,2.05,2.47,2.47,0,0,0,1,1.18,3.05,3.05,0,0,0,1.62.42,6.48,6.48,0,0,0,2.59-.65,11.54,11.54,0,0,0,2.9-1.95v-7.1a4.15,4.15,0,0,0-.16-1.47,1.15,1.15,0,0,0-.56-.57,2.81,2.81,0,0,0-1.26-.21h-1V96.63l5.42-.23v11.36a4.59,4.59,0,0,0,.17,1.51,1.14,1.14,0,0,0,.51.6,3.52,3.52,0,0,0,1.35.17h.44v1.28l-4.74.26v-2.82a15,15,0,0,1-3.42,2.3,7.4,7.4,0,0,1-3,.63,5.44,5.44,0,0,1-1.94-.32,4.15,4.15,0,0,1-2.39-2.5A5.53,5.53,0,0,1,338,107V100a3.65,3.65,0,0,0-.16-1.31,1.28,1.28,0,0,0-.52-.59,1.86,1.86,0,0,0-1-.22H335Z"/><path class="cls-1" d="M354.18,98.84v-1.3a8.57,8.57,0,0,0,1.88-.37,9.25,9.25,0,0,0,1.83-.9H359v2.55A15.78,15.78,0,0,1,361.5,97a5.84,5.84,0,0,1,2.67-.71,4.42,4.42,0,0,1,1.71.34,4.21,4.21,0,0,1,1.35.84,4.3,4.3,0,0,1,.86,1.37,10.49,10.49,0,0,1,2.78-2,6.32,6.32,0,0,1,2.6-.57,4.35,4.35,0,0,1,2.22.55,3.53,3.53,0,0,1,1.4,1.39,5.49,5.49,0,0,1,.44,2.46v7.06a9.84,9.84,0,0,0,0,1.29,1.3,1.3,0,0,0,.3.55,1.38,1.38,0,0,0,.54.37,4,4,0,0,0,1.11.1H380v1.28h-7.16V110a4.51,4.51,0,0,0,1.59-.19,1.06,1.06,0,0,0,.55-.57,4.41,4.41,0,0,0,.17-1.55V101a5,5,0,0,0-.21-1.77,1.78,1.78,0,0,0-.77-.82,2.68,2.68,0,0,0-1.36-.32,4.63,4.63,0,0,0-2.14.58,8,8,0,0,0-2.35,1.78v7.26a6.55,6.55,0,0,0,.09,1.38,1.22,1.22,0,0,0,.32.54,1.23,1.23,0,0,0,.51.31,6.88,6.88,0,0,0,1.43.08v1.28h-7V110h.4a2.52,2.52,0,0,0,1.2-.21,1.49,1.49,0,0,0,.55-.65,4.89,4.89,0,0,0,.14-1.45v-6.49a5.85,5.85,0,0,0-.21-1.93,1.83,1.83,0,0,0-.79-.85,2.6,2.6,0,0,0-1.38-.35,4.16,4.16,0,0,0-1.88.48,10.53,10.53,0,0,0-2.57,1.88v7.82a2.4,2.4,0,0,0,.17,1,1.34,1.34,0,0,0,.57.53,2.39,2.39,0,0,0,1.06.19h.53v1.28h-7.18V110h.38a3.3,3.3,0,0,0,1.3-.16,1.36,1.36,0,0,0,.65-.74,4.88,4.88,0,0,0,.11-1.41V98.84Z"/><path class="cls-1" d="M390.57,102.51v-1.66a3,3,0,0,0-.88-2.42,3.91,3.91,0,0,0-2.51-.72,4.31,4.31,0,0,0-1.41.21,2.37,2.37,0,0,0-1,.56,2.1,2.1,0,0,0-.54.82c0,.11-.16.54-.34,1.29-.22.91-.67,1.37-1.33,1.37a1.22,1.22,0,0,1-.93-.4,1.64,1.64,0,0,1-.35-1.09,3.36,3.36,0,0,1,.7-2,5,5,0,0,1,2.14-1.6,8.42,8.42,0,0,1,3.4-.63,7.44,7.44,0,0,1,3.13.6,4,4,0,0,1,1.91,1.72,6.39,6.39,0,0,1,.43,2.83v5.85a12.61,12.61,0,0,0,.07,1.63,1.76,1.76,0,0,0,.55,1,1.57,1.57,0,0,0,1,.33,5,5,0,0,0,1.57-.32v1.33a7.41,7.41,0,0,1-2.13.36,4.29,4.29,0,0,1-1.71-.3,3,3,0,0,1-1.14-.89,3.24,3.24,0,0,1-.57-1.4,12.34,12.34,0,0,1-3.1,2,7.13,7.13,0,0,1-2.8.58,4.51,4.51,0,0,1-3.2-1.14,3.55,3.55,0,0,1-1.23-2.68,3.7,3.7,0,0,1,.45-1.77,4.32,4.32,0,0,1,1.37-1.47,9.16,9.16,0,0,1,2.9-1.13A45.67,45.67,0,0,1,390.57,102.51Zm0,1.32c-2.21.35-3.58.59-4.1.72a7.31,7.31,0,0,0-2.23.83,3,3,0,0,0-1,1,2.25,2.25,0,0,0,0,2.26,2.27,2.27,0,0,0,.91.88,2.61,2.61,0,0,0,1.25.32,5.78,5.78,0,0,0,2.1-.47,14.86,14.86,0,0,0,3-1.84Z"/><path class="cls-1" d="M395.81,98.81V97.54a10.34,10.34,0,0,0,1.91-.36,11.1,11.1,0,0,0,1.81-.91h1v2.89a13.49,13.49,0,0,1,3.22-2.29,6.54,6.54,0,0,1,2.71-.6,5,5,0,0,1,2.07.41A4,4,0,0,1,410,97.82a4,4,0,0,1,.75,1.63,9.91,9.91,0,0,1,.11,1.7v6.7a4.43,4.43,0,0,0,.17,1.55,1,1,0,0,0,.52.49,6,6,0,0,0,1.76.15v1.28H406V110h.4a3.4,3.4,0,0,0,1.4-.19,1.21,1.21,0,0,0,.54-.58,4.74,4.74,0,0,0,.16-1.56v-5.6a7.56,7.56,0,0,0-.26-2.4,2.33,2.33,0,0,0-.9-1.09,2.88,2.88,0,0,0-1.61-.42,5.79,5.79,0,0,0-2.48.63,9.26,9.26,0,0,0-2.54,1.87v7a5,5,0,0,0,.16,1.59,1.15,1.15,0,0,0,.54.59,3.6,3.6,0,0,0,1.37.15h.42v1.28H395.8V110h.36a3.66,3.66,0,0,0,1.45-.19,1.07,1.07,0,0,0,.55-.67,8.58,8.58,0,0,0,.08-1.68V98.81Z"/><path class="cls-1" d="M413.55,98.81V97.54a10.39,10.39,0,0,0,2-.42,10.67,10.67,0,0,0,1.84-.85h1v12.21a2,2,0,0,0,.18,1,1,1,0,0,0,.47.47,3.17,3.17,0,0,0,1.13.14h.67v1.28h-7.32V110h.59a3,3,0,0,0,1.28-.18,1,1,0,0,0,.47-.52,5.46,5.46,0,0,0,.13-1.57v-9Zm3.63-9.41a1.55,1.55,0,0,1,1.17.51,1.7,1.7,0,0,1,.49,1.24,1.74,1.74,0,0,1-.49,1.25,1.58,1.58,0,0,1-2.34,0,1.74,1.74,0,0,1-.49-1.25,1.7,1.7,0,0,1,.49-1.24A1.55,1.55,0,0,1,417.18,89.4Z"/><path class="cls-1" d="M424.75,91.45h1v5.18H430v1.52h-4.24v9.18A5.18,5.18,0,0,0,426,109a1.75,1.75,0,0,0,.66.82,1.79,1.79,0,0,0,1,.32,5.06,5.06,0,0,0,3-1.29v1.47a6.43,6.43,0,0,1-3.8,1.36,3.86,3.86,0,0,1-2-.52,2.8,2.8,0,0,1-1.2-1.22,6.29,6.29,0,0,1-.33-2.43V98.15h-2.5V96.87a4.83,4.83,0,0,0,1.95-.89,4.64,4.64,0,0,0,1.2-1.59A11.23,11.23,0,0,0,424.75,91.45Z"/><path class="cls-1" d="M429.42,96.63h6.94v1.28h-.57a4.47,4.47,0,0,0-1,0,.63.63,0,0,0-.32.25.85.85,0,0,0-.12.48,4.35,4.35,0,0,0,.38,1.38l3.32,8.3,3.08-7.93a6.94,6.94,0,0,0,.54-1.86.58.58,0,0,0-.24-.51,2.32,2.32,0,0,0-1.1-.16h-.68V96.63h5.84v1.28h-.34a3.19,3.19,0,0,0-1.11.12,1.33,1.33,0,0,0-.51.5,12.81,12.81,0,0,0-.77,1.69l-5.24,13a20.25,20.25,0,0,1-1.27,2.6,5.22,5.22,0,0,1-1.76,1.85,4.38,4.38,0,0,1-2.33.65,3.65,3.65,0,0,1-2.36-.72,1.87,1.87,0,0,1-.75-1.52,1.34,1.34,0,0,1,.33-.93,1,1,0,0,1,.77-.38,1.29,1.29,0,0,1,.64.16,3.62,3.62,0,0,1,.77.63,6.19,6.19,0,0,0,1,.83,1.28,1.28,0,0,0,.58.15,1.9,1.9,0,0,0,1.16-.43,3.39,3.39,0,0,0,1-1.2,19.26,19.26,0,0,0,.94-2.09l.6-1.5-4.73-11.27a7,7,0,0,0-.84-1.6,1.44,1.44,0,0,0-.69-.5,6,6,0,0,0-1.17-.06Z"/><path class="cls-1" d="M141.53,80.77V79.69a9.23,9.23,0,0,0,2.41-.69,1.47,1.47,0,0,0,.9-1.44,10,10,0,0,0-.59-2.76c-.39-1.2-.69-2-.89-2.49l-2.42-6.59a52.43,52.43,0,0,0-6.21-.26h-2.6a33.22,33.22,0,0,0-6.87.39l-2.4,6.07a18.66,18.66,0,0,0-1.6,4.75,2.31,2.31,0,0,0,1,1.92,10,10,0,0,0,4.21,1.23V80.9a57.68,57.68,0,0,0-6.53-.46q-2.74,0-6,.27v-.95a6.35,6.35,0,0,0,3-1.55A11.87,11.87,0,0,0,119.12,75q1.29-2.57,2.62-5.6t1.92-4.74l5.25-12.56q1-2.27,2-4.74t1.95-5c.62-1.66,1.07-3,1.35-4a.85.85,0,0,1,.2-.62l1.08-.07q1,3.65,2.23,7l6.88,18.46q2.65,6.91,4,10.21A24.87,24.87,0,0,0,151,78c.57.81,1.73,1.3,3.5,1.47v1.15c-1.79-.17-3.52-.26-5.18-.26-1.31,0-2.53,0-3.65.1s-2,.12-2.68.18ZM131.15,51.23l-3.7,9.54c-.51,1.36-.84,2.21-1,2.56a37.39,37.39,0,0,0,5.73.39l3-.06c1.81,0,3.43,0,4.88-.14-.77-2.22-1.26-3.55-1.48-4l-2.35-6c-.27-.65-.76-1.84-1.49-3.57s-1.26-2.91-1.59-3.54c-.42.92-.77,1.75-1.07,2.51S131.48,50.44,131.15,51.23Z"/><path class="cls-1" d="M191.16,66l-3.77-5.38a49.27,49.27,0,0,1-7.19-.43l-.06,7.87q0,2.49.15,5.58A14.62,14.62,0,0,0,181,78a1.81,1.81,0,0,0,.9,1.11,17.45,17.45,0,0,0,2.87.92c.48.11.72.29.72.53,0,.48-.15.72-.46.72a27.58,27.58,0,0,1-2.75-.33c-1.88-.18-3-.26-3.45-.26a47.93,47.93,0,0,0-6.55.46,3.15,3.15,0,0,0-.56.06c-.44,0-.66-.2-.66-.59a.56.56,0,0,1,.25-.49,4.29,4.29,0,0,1,1.1-.39,4,4,0,0,0,2.13-1.2,6.69,6.69,0,0,0,.95-3.15,69.43,69.43,0,0,0,.33-7.52V53.39c0-3.54,0-6.14-.05-7.8a13.64,13.64,0,0,0-.54-3.66,2.6,2.6,0,0,0-1.31-1.56,10.84,10.84,0,0,0-2.79-.62l.13-1.08c1.16,0,2.63.07,4.43.07q.78,0,5.72-.41c3.29-.28,5.37-.41,6.25-.41a18.71,18.71,0,0,1,6.19.95,14.11,14.11,0,0,1,4.61,2.52,10.72,10.72,0,0,1,2.8,3.59,9.57,9.57,0,0,1,.95,4.15,9.72,9.72,0,0,1-1,4.26,11.26,11.26,0,0,1-3,3.76A17.65,17.65,0,0,1,193.06,60l1.48,2.23q3.09,4.65,5.13,7.52a66,66,0,0,0,4.38,5.53,25.37,25.37,0,0,0,4.77,4.31,10.09,10.09,0,0,0,4.77,1.85c.41.07.62.28.62.66a.48.48,0,0,1-.3.44,3.91,3.91,0,0,1-1.41.15,14.19,14.19,0,0,1-6.13-1.4,23.91,23.91,0,0,1-5.61-3.75,40.48,40.48,0,0,1-4.72-5Q194,70,191.16,66ZM180.4,58.31a23.21,23.21,0,0,0,5.31.53,26.27,26.27,0,0,0,3.33-.23,14,14,0,0,0,3.61-1,7.66,7.66,0,0,0,3.2-2.65,8.43,8.43,0,0,0,1.34-5A10.88,10.88,0,0,0,196,45.27a11.08,11.08,0,0,0-3.59-4.19,9.82,9.82,0,0,0-5.91-1.75,16.27,16.27,0,0,0-3.26.37c-1.21.25-1.92.65-2.11,1.2Q180.4,42.51,180.4,58.31Z"/><path class="cls-1" d="M231.38,39.42l-.07-1.14q5.38.26,7.81.26c1.59,0,2.9,0,3.91-.15s2-.2,2.87-.31v1.05c-2.56.3-4.08.92-4.59,1.83a14.7,14.7,0,0,0-.52,3.53c-.16,1.93-.27,4-.35,6.29s-.11,3.92-.11,5v3.9c.76-.68,2.11-2,4-3.9l8-7.91a62.79,62.79,0,0,0,4.36-4.66,2.83,2.83,0,0,0,.75-1.91c0-1-1.07-1.53-3.21-1.64l-.07-1.24,5.45.06a46.83,46.83,0,0,0,7-.33l.06,1.25q-2.72.3-7,3.91t-8,7.3L247.18,55q-1.94,1.85-3.18,3.16l12.17,10.14q8,6.55,10.49,8.53A42.64,42.64,0,0,0,271.15,80l.07,1c-.22,0-.49-.06-.8-.11s-.73-.1-1.24-.15c-1.05-.08-2.07-.13-3.08-.13q-2.76,0-7.18.39l-.07-.91a3.62,3.62,0,0,1,.53-.17l.89-.2c.89-.16,1.34-.41,1.34-.74q0-1-7.33-6.84l-6.09-4.94L246.4,65.8c-.47-.39-1.19-.94-2.16-1.66s-2-1.49-3.06-2.28l-.85-.62q0,3,.15,9.26a46.8,46.8,0,0,0,.44,7.24,4,4,0,0,0,2.34,1.75,9,9,0,0,0,2.71.69v1a39.69,39.69,0,0,0-4.3-.33c-1.13,0-2.86-.07-5.18-.07-1.92,0-3.74,0-5.44.13V79.76a7.9,7.9,0,0,0,2.85-.64,2.56,2.56,0,0,0,1.18-1.82,33.34,33.34,0,0,0,.53-4.77q.22-3.6.32-7.92c.07-2.89.1-4.59.1-5.12q0-7.87-.19-11.77c0-1.9-.05-3.37-.15-4.39a6.58,6.58,0,0,0-.56-2.32A2.18,2.18,0,0,0,233.9,40,13.42,13.42,0,0,0,231.38,39.42Z"/><path class="cls-1" d="M290.42,80.77l-1.35-.06a37.81,37.81,0,0,0-1.8-11,8.67,8.67,0,0,1,1.05-.26c.52,1.64.93,2.83,1.23,3.56A7.11,7.11,0,0,0,290.7,75a6.45,6.45,0,0,0,1.95,1.5,30.84,30.84,0,0,0,4.92,2,19.65,19.65,0,0,0,6,.88A12.68,12.68,0,0,0,309.16,78q2.8-1.38,2.8-6.07a9.29,9.29,0,0,0-.82-4.07A7.61,7.61,0,0,0,309,65.1a15.56,15.56,0,0,0-3.08-1.87q-1.76-.82-4.54-1.87A39.53,39.53,0,0,1,295,58.48a12.3,12.3,0,0,1-4-3.64,9.21,9.21,0,0,1-1.48-5.28,10.7,10.7,0,0,1,3.64-8.25q3.65-3.3,10.4-3.3a31.49,31.49,0,0,1,6.78.73A13.64,13.64,0,0,0,312,39a3.49,3.49,0,0,0,2-.66l.27-.13a2.06,2.06,0,0,1,.65.13c-.06.51-.12,1-.18,1.49s-.11,1-.16,1.63-.09,1-.12,1.37,0,.55-.06.66c.28,2.65.41,4.09.39,4.33l-1,.06a8,8,0,0,0-2.2-5.26A10,10,0,0,0,307.24,40a17,17,0,0,0-4.66-.68q-5.43,0-7.19,2.83a10.28,10.28,0,0,0-1.76,5.36,7.19,7.19,0,0,0,1.31,4.41,9.33,9.33,0,0,0,3.27,2.75,58.63,58.63,0,0,0,5.49,2.37,57.39,57.39,0,0,1,6.43,2.9,13.79,13.79,0,0,1,4.32,3.84A10,10,0,0,1,316.36,70a10.25,10.25,0,0,1-1.64,5.68,11.22,11.22,0,0,1-4.92,4,19.64,19.64,0,0,1-8,1.48,36.65,36.65,0,0,1-9.6-1.35,7.91,7.91,0,0,0-1.09-.2C290.51,79.62,290.29,80,290.42,80.77Z"/><path class="cls-1" d="M365.12,39.55V38.14c2.47.14,4,.22,4.62.27,2.23.09,3.73.13,4.49.13.27,0,1.4,0,3.41-.13l5.68-.27v1.55a16.19,16.19,0,0,0-3.94.31,2.6,2.6,0,0,0-1.57,1.23Q376.73,43.3,376.73,57q0,9.45,0,12c0,1.67.05,3.46.12,5.36a13.3,13.3,0,0,0,.36,3.25,2.33,2.33,0,0,0,1.6,1.43,13.88,13.88,0,0,0,4.23.51l-.13,1.24c-.3,0-.91,0-1.82,0l-2.82-.08-2.24,0h-4.22l-2.57,0-2.9.08c-.87,0-1.38,0-1.56,0l-.07-1.24a14,14,0,0,0,4.79-.82,3.34,3.34,0,0,0,1.71-2,25.51,25.51,0,0,0,.83-6.7q.18-4.94.18-10.4,0-4.95-.32-14.22a13.29,13.29,0,0,0-.51-3.66,2.87,2.87,0,0,0-1.84-1.62A14.49,14.49,0,0,0,365.12,39.55Z"/><path class="cls-1" d="M401.5,45.39l-1.11-.26q1.55-4.1,2.77-7.8a6.81,6.81,0,0,0,1.18.93,4.32,4.32,0,0,0,1.41.34c1.4.18,4.57.27,9.53.27h16.59c.42,0,1.75,0,4-.07l3.87-.06a6,6,0,0,0,1.83-.18,2.82,2.82,0,0,0,1-.78,2.68,2.68,0,0,0,.85.82,40.09,40.09,0,0,0-1.81,6.73l-1.41.19c.11-.72.2-1.7.27-3a7.24,7.24,0,0,0-2.95-1.26,31.5,31.5,0,0,0-6.53-.48c-2.19,0-3.63,0-4.33.05a2.64,2.64,0,0,0-1.31.27,1.41,1.41,0,0,0-.33.93l-.19,4.4c0,.7-.07,2.62-.2,5.77,0,.79-.05,2.94-.07,6.45s0,6.56-.06,9.14q0,4.93.1,6.91a9,9,0,0,0,.55,3,2.38,2.38,0,0,0,1.4,1.38,19.06,19.06,0,0,0,3.19.62c1,.08,1.48.22,1.48.41a2.19,2.19,0,0,1-.07.77,10.77,10.77,0,0,1-1.27.06c-1.34-.08-2.51-.15-3.51-.19-1.47-.13-2.65-.2-3.54-.2a46.39,46.39,0,0,0-7,.59c-1.4.24-2.16.36-2.29.36a.91.91,0,0,1-.71-.23,2.58,2.58,0,0,1-.44-.85c.28-.09,1-.26,2-.52a22.28,22.28,0,0,0,3.3-.95A2.28,2.28,0,0,0,419,78a5.57,5.57,0,0,0,.26-2,31.35,31.35,0,0,1,.26-3.71c0,.13,0-1.17.07-3.9s.08-4.67.1-5.82,0-2.52,0-4.11q0-7-.05-10c0-2-.1-3.57-.21-4.67a10.69,10.69,0,0,0-.53-2.61q-2.82-.25-6.19-.26a51,51,0,0,0-5.5.23,9.44,9.44,0,0,0-3,.75,3.82,3.82,0,0,0-1.51,1.18A17.09,17.09,0,0,0,401.5,45.39Z"/></g></g></svg>